<?xml version="1.0" encoding="utf-8"?>
<!-- Generator: Adobe Illustrator 23.1.0, SVG Export Plug-In . SVG Version: 6.00 Build 0)  -->
<svg version="1.1" id="Layer_1" xmlns="http://www.w3.org/2000/svg" xmlns:xlink="http://www.w3.org/1999/xlink" x="0px" y="0px"
	 viewBox="0 0 517.99 496.36" style="enable-background:new 0 0 517.99 496.36;" xml:space="preserve">
<style type="text/css">
	.st0{fill:#FFFFFF;stroke:#000000;stroke-width:3;stroke-miterlimit:10;}
	.st1{fill:#3A3737;}
	.st2{fill:#969292;}
	.st3{fill:none;}
	.st4{font-family:'ArialMT';}
	.st5{font-size:19px;}
	.st6{font-family:'Arial-BoldMT';}
	.st7{font-size:45px;}
</style>
<path class="st0" d="M360.73,41.99H157.99c-10.97,0-21.1,5.85-26.58,15.35L30.03,232.92c-5.48,9.5-5.48,21.2,0,30.7L131.4,439.2
	c5.48,9.5,15.62,15.35,26.58,15.35h202.74c10.97,0,21.1-5.85,26.58-15.35l101.37-175.58c5.48-9.5,5.48-21.2,0-30.7L387.31,57.34
	C381.83,47.84,371.7,41.99,360.73,41.99z"/>
<g>
	<path class="st1" d="M131.87,346.88V220.22c0-6.58,1.5-11.51,4.5-14.8c3-3.29,6.87-4.93,11.62-4.93c4.9,0,8.86,1.63,11.9,4.88
		c3.03,3.25,4.55,8.21,4.55,14.86v126.66c0,6.65-1.52,11.62-4.55,14.91c-3.03,3.29-7,4.93-11.9,4.93c-4.68,0-8.54-1.66-11.57-4.99
		C133.38,358.41,131.87,353.46,131.87,346.88z"/>
	<path class="st1" d="M225.28,301.37h-29.83v45.51c0,6.51-1.54,11.44-4.61,14.8c-3.07,3.36-6.95,5.04-11.62,5.04
		c-4.9,0-8.85-1.66-11.84-4.99c-3-3.33-4.5-8.21-4.5-14.64V223.18c0-7.16,1.64-12.28,4.93-15.35c3.29-3.07,8.52-4.61,15.68-4.61
		h41.78c12.35,0,21.86,0.95,28.51,2.85c6.58,1.83,12.26,4.86,17.05,9.1c4.79,4.24,8.42,9.43,10.91,15.57
		c2.48,6.14,3.73,13.05,3.73,20.73c0,16.38-5.04,28.79-15.13,37.23C260.27,297.15,245.24,301.37,225.28,301.37z M217.39,227.68
		h-21.93v49.13h21.93c7.68,0,14.09-0.8,19.25-2.41c5.15-1.61,9.08-4.24,11.79-7.9c2.7-3.65,4.06-8.44,4.06-14.37
		c0-7.09-2.08-12.87-6.25-17.33C241.55,230.06,231.94,227.68,217.39,227.68z"/>
	<path class="st1" d="M430.35,315.74c0,9.72-2.51,18.46-7.51,26.21c-5.01,7.75-12.34,13.82-21.99,18.2
		c-9.65,4.39-21.09,6.58-34.32,6.58c-15.86,0-28.95-3-39.26-8.99c-7.31-4.31-13.25-10.07-17.82-17.27c-4.57-7.2-6.85-14.2-6.85-21
		c0-3.95,1.37-7.33,4.11-10.14c2.74-2.81,6.23-4.22,10.47-4.22c3.44,0,6.34,1.1,8.72,3.29c2.37,2.19,4.4,5.45,6.09,9.76
		c2.05,5.12,4.26,9.39,6.63,12.83c2.37,3.44,5.72,6.27,10.03,8.5c4.31,2.23,9.98,3.34,17,3.34c9.65,0,17.49-2.25,23.52-6.74
		c6.03-4.5,9.05-10.11,9.05-16.83c0-5.34-1.63-9.67-4.88-12.99c-3.25-3.33-7.46-5.87-12.61-7.62c-5.15-1.75-12.05-3.62-20.67-5.59
		c-11.55-2.7-21.22-5.87-29-9.49c-7.79-3.62-13.96-8.55-18.53-14.8c-4.57-6.25-6.85-14.02-6.85-23.3c0-8.84,2.41-16.7,7.24-23.58
		c4.83-6.87,11.81-12.15,20.95-15.85c9.14-3.69,19.88-5.54,32.24-5.54c9.87,0,18.4,1.23,25.61,3.67c7.2,2.45,13.18,5.7,17.93,9.76
		c4.75,4.06,8.22,8.32,10.42,12.78c2.19,4.46,3.29,8.81,3.29,13.05c0,3.88-1.37,7.37-4.11,10.47c-2.74,3.11-6.16,4.66-10.25,4.66
		c-3.73,0-6.56-0.93-8.5-2.8c-1.94-1.86-4.04-4.92-6.31-9.16c-2.92-6.07-6.43-10.8-10.53-14.2c-4.09-3.4-10.67-5.1-19.74-5.1
		c-8.41,0-15.19,1.85-20.34,5.54c-5.15,3.69-7.73,8.13-7.73,13.32c0,3.22,0.88,6,2.63,8.33c1.75,2.34,4.17,4.35,7.24,6.03
		c3.07,1.68,6.18,3,9.32,3.95c3.14,0.95,8.33,2.34,15.57,4.17c9.06,2.12,17.27,4.46,24.62,7.02c7.35,2.56,13.6,5.67,18.75,9.32
		c5.15,3.66,9.17,8.28,12.06,13.87C428.91,300.77,430.35,307.62,430.35,315.74z"/>
	<g>
		<polygon class="st2" points="78.77,162.25 186.92,175.26 275.17,111.08 167.35,99.74 		"/>
		<path class="st2" d="M113.43,170.31l7.18,27.56c0,0,7.72,23.77,61.01,19.9c0,0,20.97-2.73,36.45-10.86
			c15.48-8.13,37.73-22.87,37.64-42.42l-7.62-29.26l-60.21,43.29L113.43,170.31z"/>
		<path class="st2" d="M267.83,116.12l11.02,39.94c0,0-3.87,2.98-2.7,7.09c1.17,4.11,5.89,5.13,5.89,5.13s-1.42,13,0.36,18.84
			c0,0,1.62,6.01,8.68,4.77l1.37-0.36c0,0,5.59-2.19,4.94-8.36c0,0-6.27-14.77-9.05-16.52c0,0,3.57-3.32,2.73-7.74
			c0,0-0.63-3.01-5.78-4.74l-11.06-42.39L267.83,116.12z"/>
	</g>
</g>
<rect x="154.45" y="384.73" class="st3" width="69.52" height="48"/>
<text transform="matrix(1 0 0 1 154.4483 398.3309)"><tspan x="0" y="0" class="st4 st5">Indo</tspan><tspan x="0" y="17" class="st4 st5">Student</tspan></text>
<rect x="217.72" y="384.73" class="st3" width="154.91" height="48"/>
<text transform="matrix(1 0 0 1 217.7197 416.9461)" class="st6 st7">PERTH</text>
</svg>
